<svg width="130" height="21" viewBox="0 0 130 21" xmlns="http://www.w3.org/2000/svg"><title>logo copy 2</title><g fill="none" fill-rule="evenodd"><path fill="#FFF" d="M9 7h6V0L0 8.5 15 17v-7H9z"/><path fill="#1476F2" d="M19 0v7h6v3h-6v7l15-8.5z"/><path d="M44.728 3.448V16h2.904V8.488c0-1.92 1.32-2.88 2.76-2.88 1.44 0 2.232.792 2.232 2.64V16h2.904V8.488c0-1.92 1.32-2.88 2.76-2.88 1.44 0 2.232.792 2.232 2.64V16h2.904V8.056c0-3.456-1.872-4.872-4.176-4.872-1.56 0-3.288.696-4.248 2.256-.648-1.56-1.92-2.256-3.552-2.256-1.848 0-3.216 1.008-3.816 2.184v-1.92h-2.904zM70.144 16.24c-2.304 0-4.2-1.104-4.2-3.72 0-2.928 2.856-3.984 6.432-3.984h1.56v-.648c0-1.704-.552-2.52-2.28-2.52-1.536 0-2.232.72-2.4 1.968h-2.808c.264-2.928 2.568-4.152 5.376-4.152 2.808 0 5.016 1.128 5.016 4.584V16h-2.856v-1.536c-.84 1.08-1.92 1.776-3.84 1.776zm.696-2.088c1.8 0 3.096-.912 3.096-2.544V10.36h-1.488c-2.208 0-3.624.504-3.624 2.04 0 1.056.576 1.752 2.016 1.752zm14.784 6.456c-3.936 0-5.736-1.776-6.048-4.176h2.928C82.768 17.68 83.68 18.4 85.6 18.4c2.28 0 3.504-1.104 3.504-3.384v-1.848c-.696 1.2-2.256 2.328-4.104 2.328-3.144 0-5.568-2.328-5.568-5.976v-.168c0-3.528 2.376-6.168 5.64-6.168 2.088 0 3.288.936 4.032 2.184v-1.92h2.904v11.616c-.024 3.72-2.472 5.544-6.384 5.544zm.096-7.344c2.016 0 3.48-1.44 3.48-3.84v-.168c0-2.4-1.272-3.792-3.384-3.792-2.184 0-3.408 1.536-3.408 3.84v.192c0 2.328 1.44 3.768 3.312 3.768zm15.456.72c2.184 0 3.456-1.584 3.456-4.176V9.64c0-2.592-1.272-4.176-3.456-4.176s-3.48 1.56-3.48 4.152v.192c0 2.592 1.272 4.176 3.48 4.176zm-.024 2.256c-3.72 0-6.432-2.544-6.432-6.384v-.192c0-3.888 2.76-6.48 6.456-6.48 3.648 0 6.432 2.568 6.432 6.408v.192c0 3.912-2.76 6.456-6.456 6.456zm9.168-12.792V16h2.904V9.472c0-2.64 1.512-3.504 4.08-3.504V3.256c-2.112.024-3.288.936-4.08 2.544V3.448h-2.904zm12.912 12.792c-2.304 0-4.2-1.104-4.2-3.72 0-2.928 2.856-3.984 6.432-3.984h1.56v-.648c0-1.704-.552-2.52-2.28-2.52-1.536 0-2.232.72-2.4 1.968h-2.808c.264-2.928 2.568-4.152 5.376-4.152 2.808 0 5.016 1.128 5.016 4.584V16h-2.856v-1.536c-.84 1.08-1.92 1.776-3.84 1.776zm.696-2.088c1.8 0 3.096-.912 3.096-2.544V10.36h-1.488c-2.208 0-3.624.504-3.624 2.04 0 1.056.576 1.752 2.016 1.752z" fill="#FFF"/></g></svg>